<svg xmlns="http://www.w3.org/2000/svg" xmlns:xlink="http://www.w3.org/1999/xlink" viewBox="0 0 199.09 64"><defs><linearGradient id="linear-gradient" x1="-915.03" y1="529.13" x2="-916.39" y2="531.04" gradientTransform="matrix(200.09, 0, 0, -64, 183271.1, 33932.29)" gradientUnits="userSpaceOnUse"><stop offset="0" stop-color="#f93333"/><stop offset="1" stop-color="#ee3d6d"/></linearGradient></defs><g id="Layer_2" data-name="Layer 2"><g id="Layer_1-2" data-name="Layer 1"><path id="Exclusion_4" data-name="Exclusion 4" d="M22.87,64h0L0,52V0H41.93V20H38.11V4H7.62l15.25,8V48H38.11V36h3.82V52H22.87V64ZM173.08,52h-132V32H25.68V24h15.4V0h132a25.84,25.84,0,0,1,18.39,7.62A26,26,0,0,1,197,36.12a25.77,25.77,0,0,1-5.57,8.27A25.89,25.89,0,0,1,173.08,52ZM44.74,32v8L56.17,28,44.74,16v8H41.08v8Z" fill="url(#linear-gradient)"/></g></g></svg>